HIERARCHY
ROOT Hips
{
	OFFSET 0.00000 0.00000 0.00000
	CHANNELS 6 Xposition Yposition Zposition Zrotation Yrotation Xrotation 
	JOINT LHipJoint
	{
		OFFSET 0 0 0
		CHANNELS 3 Zrotation Yrotation Xrotation
		JOINT LeftHip
		{
			OFFSET 1.34019 -1.87553 0.90315
			CHANNELS 3 Zrotation Yrotation Xrotation
			JOINT LeftKnee
			{
				OFFSET 2.55316 -7.01474 0.00000
				CHANNELS 3 Zrotation Yrotation Xrotation
				JOINT LeftAnkle
				{
					OFFSET 2.64657 -7.27139 0.00000
					CHANNELS 3 Zrotation Yrotation Xrotation
					JOINT LeftToe
					{
						OFFSET 0.24207 -0.66507 2.14489
						CHANNELS 3 Zrotation Yrotation Xrotation
						End Site
						{
							OFFSET 0.00000 -0.00000 1.12451
						}
					}
				}
			}
		}
	}
	JOINT RHipJoint
	{
		OFFSET 0 0 0
		CHANNELS 3 Zrotation Yrotation Xrotation
		JOINT RightHip
		{
			OFFSET -1.28320 -1.87553 0.90315
			CHANNELS 3 Zrotation Yrotation Xrotation
			JOINT RightKnee
			{
				OFFSET -2.60484 -7.15674 0.00000
				CHANNELS 3 Zrotation Yrotation Xrotation
				JOINT RightAnkle
				{
					OFFSET -2.60296 -7.15159 0.00000
					CHANNELS 3 Zrotation Yrotation Xrotation
					JOINT RightToe
					{
						OFFSET -0.31082 -0.85398 2.28998
						CHANNELS 3 Zrotation Yrotation Xrotation
						End Site
						{
							OFFSET -0.00000 -0.00000 1.21611
						}
					}
				}
			}
		}
	}
	JOINT lowerback
	{
		OFFSET 0 0 0
		CHANNELS 3 Zrotation Yrotation Xrotation
		JOINT Chest
		{
			OFFSET -0.00160 2.05581 -0.15156
			CHANNELS 3 Zrotation Yrotation Xrotation
			JOINT Chest2
			{
				OFFSET 0.04594 2.06326 -0.01617
				CHANNELS 3 Zrotation Yrotation Xrotation
				JOINT lowerneck
				{
					OFFSET 0 0 0
					CHANNELS 3 Zrotation Yrotation Xrotation
					JOINT Neck
					{
						OFFSET 0.03753 1.73883 0.26751
						CHANNELS 3 Zrotation Yrotation Xrotation
						JOINT Head
						{
							OFFSET -0.09795 1.76129 -0.31794
							CHANNELS 3 Zrotation Yrotation Xrotation
							End Site
							{
								OFFSET -0.03611 1.79987 -0.13846
							}
						}
					}
				}
				JOINT LeftCollar
				{
					OFFSET 0 0 0
					CHANNELS 3 Zrotation Yrotation Xrotation
					JOINT LeftShoulder
					{
						OFFSET 3.30667 1.29205 -0.22445
CHANNELS 3 Zrotation Xrotation Yrotation
						JOINT LeftElbow
						{
OFFSET 0 -4.927850 -0.000000
CHANNELS 3 Zrotation Xrotation Yrotation
							JOINT LeftWrist
							{
OFFSET 0 -3.440520 0.000000
CHANNELS 3 Zrotation Xrotation Yrotation
								JOINT lhand
								{
									OFFSET 0 0 0
CHANNELS 3 Zrotation Xrotation Yrotation
									JOINT LFingers
									{
OFFSET 0 -0.654330 0.000000
CHANNELS 3 Zrotation Xrotation Yrotation
										End Site
										{
OFFSET 0 -0.527530 0.000000
										}
									}
								}
								JOINT LThumb
								{
OFFSET 0 0.000000 0.000000
CHANNELS 3 Zrotation Xrotation Yrotation
									End Site
									{
OFFSET 0 -0.535590 0.535590
									}
								}
							}
						}
					}
				}
				JOINT RightCollar
				{
					OFFSET 0 0 0
					CHANNELS 3 Zrotation Yrotation Xrotation
					JOINT RightShoulder
					{
						OFFSET -3.20032 1.49783 -0.27688
CHANNELS 3 Zrotation Xrotation Yrotation
						JOINT RightElbow
						{
OFFSET 0 -5.091810 -0.000000
CHANNELS 3 Zrotation Xrotation Yrotation
							JOINT RightWrist
							{
OFFSET 0 -3.498650 -0.000000
CHANNELS 3 Zrotation Xrotation Yrotation
								JOINT rhand
								{
									OFFSET 0 0 0
CHANNELS 3 Zrotation Xrotation Yrotation
									JOINT RFingers
									{
OFFSET 0 -0.666410 0.000000
CHANNELS 3 Zrotation Xrotation Yrotation
										End Site
										{
OFFSET 0 -0.537280 0.000000
										}
									}
								}
								JOINT RThumb
								{
OFFSET 0 0.000000 0.000000
CHANNELS 3 Zrotation Xrotation Yrotation
									End Site
									{
OFFSET 0 -0.545480 0.545480
									}
								}
							}
						}
					}
				}
			}
		}
	}
}
MOTION
Frames: 12
Frame Time: 0.008333333333333333
1.799144 17.557250 28.151690 10.554276 -175.982805 347.789671 0.000000 0.000000 0.000000 11.173080 -0.831037 -59.106528 30.268952 17.255086 121.415415 0.329763 -5.914983 14.626770 0.004656 -0.438826 -1.205697 0.000000 0.000000 0.000000 36.418260 -8.183230 0.314710 -2.293223 -9.450873 27.216879 0.344540 -16.516714 -19.769908 0.000000 0.013441 -0.037000 11.636560 6.305332 15.543323 0.624081 10.549886 -1.461258 -7.967530 4.515357 -8.306467 11.346544 -5.002630 -23.012573 -5.559982 -10.366460 26.935920 -5.678018 -4.511988 11.739594 0.000000 0.000000 0.000000 18.000235 12.937524 -31.702354 16.320694 -25.953466 3.785235 8.465831 0.008174 -0.412581 0.000000 0.000000 0.000000 -7.125000 0.000000 0.000000 -14.214148 30.223143 -5.273289 0.000000 0.000000 0.000000 -1.828117 -0.208185 5.526076 -20.967296 -31.789443 -6.033010 -18.736664 -5.971055 4.395277 0.000000 0.000000 0.000000 7.125000 0.000000 0.000000 6.533037 34.562593 1.683500
1.657248 17.625565 27.097930 10.828294 -178.360963 345.980511 0.000000 0.000000 0.000000 12.174724 -2.898313 -80.499670 31.213105 16.668560 124.649891 0.223795 -6.270916 13.378552 0.015806 -0.810762 -2.228235 0.000000 0.000000 0.000000 36.934396 -8.500415 11.441424 -1.113943 -6.704535 18.843147 0.817225 -19.074468 -18.640329 -0.000015 -0.026332 0.072440 13.014743 7.811626 17.022714 0.517408 12.937419 -1.094705 -9.334994 5.629989 -7.915768 10.144554 -5.744107 -22.951761 -4.443379 -11.326681 27.067405 -5.217000 -4.899825 11.844706 0.000000 0.000000 0.000000 18.841277 15.058229 -25.514431 16.346022 -25.987589 3.796337 7.132533 1.511491 -1.579222 0.000000 0.000000 0.000000 -7.125000 0.000000 0.000000 -15.428198 31.327338 -5.328854 0.000000 0.000000 0.000000 -6.398761 -6.182233 5.725762 -24.914424 -36.116301 -8.239447 -19.262180 -8.665024 3.223044 0.000000 0.000000 0.000000 7.125000 0.000000 0.000000 5.991061 33.350452 1.718883
1.532524 17.614828 25.994079 10.367563 -179.645326 345.773361 0.000000 0.000000 0.000000 10.793139 -7.522884 -86.363317 29.228041 17.821426 117.961507 0.316470 -3.157921 12.266357 0.094126 -1.978053 -5.445008 0.000000 0.000000 0.000000 36.052802 -9.080760 19.900678 -0.454658 -4.325418 11.993997 1.028296 -19.785711 -17.166527 -0.014980 0.789856 -2.170688 13.382158 8.378965 16.486895 -0.387269 13.686156 -1.495261 -10.516144 6.012255 -7.580841 11.182125 -5.874175 -23.203969 -4.609789 -11.991004 27.746411 -5.590589 -5.106015 12.026010 0.000000 0.000000 0.000000 19.777516 17.095042 -20.283130 14.857135 -23.946680 3.167783 6.005299 3.403263 -2.670888 0.000000 0.000000 0.000000 -7.125000 0.000000 0.000000 -16.497724 32.345936 -5.303521 0.000000 0.000000 0.000000 -6.441912 -9.560960 3.743873 -26.519827 -37.717361 -9.203782 -19.910647 -9.029015 3.350988 0.000000 0.000000 0.000000 7.125000 0.000000 0.000000 5.475281 33.506635 1.548878
1.437003 17.557524 24.911952 10.161818 -180.237494 348.317093 0.000000 0.000000 0.000000 7.434258 -8.995610 -79.201814 24.937900 19.403269 104.577566 0.429040 -1.041793 12.792505 0.147769 -2.477139 -6.826349 0.000000 0.000000 0.000000 35.284760 -8.359740 22.846734 -0.311318 -3.586850 9.917254 0.871044 -18.495378 -16.400616 -0.090912 1.944202 -5.351526 12.817980 8.408159 13.661074 -1.219360 13.325668 -2.683309 -10.655394 5.877122 -7.333756 11.429030 -5.679416 -23.072516 -4.294277 -12.002923 28.173672 -5.545841 -5.045153 12.189497 0.000000 0.000000 0.000000 19.292252 17.817957 -17.297504 13.304350 -21.731494 2.564921 4.802425 4.625921 -3.417056 0.000000 0.000000 0.000000 -7.125000 0.000000 0.000000 -17.582703 33.014496 -5.383708 0.000000 0.000000 0.000000 -3.682041 -8.735028 4.182027 -26.286231 -37.489903 -9.061376 -19.576097 -8.079805 3.358717 0.000000 0.000000 0.000000 7.125000 0.000000 0.000000 5.748057 33.503713 1.627144
1.323391 17.535271 23.720868 9.999939 -180.666945 351.557254 0.000000 0.000000 0.000000 1.274341 -6.866967 -61.425112 16.534545 19.705049 79.818105 1.286520 3.677324 20.545047 0.102243 -2.061314 -5.675161 0.000000 0.000000 0.000000 33.945325 -8.950915 25.880973 -0.103631 -2.069924 5.699116 0.967189 -17.992752 -12.796486 -0.276773 3.382869 -9.346699 11.476881 7.326154 9.775037 -0.969925 11.268422 -3.927370 -8.947522 4.901988 -7.306242 9.748069 -4.494471 -21.775622 -3.282840 -10.013022 28.508502 -4.607383 -4.218240 12.431571 0.000000 0.000000 0.000000 15.826455 18.810248 -15.040969 12.782827 -20.968163 2.374980 4.443257 5.633195 -3.667039 0.000000 0.000000 0.000000 -7.125000 0.000000 0.000000 -17.915026 33.237773 -5.392739 0.000000 0.000000 0.000000 -0.574793 -3.624170 7.827369 -23.598284 -34.735991 -7.476617 -18.825692 -6.468717 3.923408 0.000000 0.000000 0.000000 7.125000 0.000000 0.000000 6.412350 34.071033 1.728330
1.075293 17.438222 22.182994 8.907652 -180.552177 354.274663 0.000000 0.000000 0.000000 -4.575339 -5.575025 -40.118111 8.904954 16.744866 55.758889 0.530243 -0.282174 13.839256 0.686777 -5.292012 -14.744836 0.000000 0.000000 0.000000 30.998331 -9.416928 27.223636 -0.180108 -2.723857 7.511469 0.813170 -16.243012 -10.443352 -0.745846 5.515833 -15.386036 9.419901 6.255118 5.461688 -1.069358 9.371455 -5.308910 -7.305284 4.146003 -7.039808 10.217142 -3.548370 -22.128486 -3.733532 -8.930136 29.605680 -4.795932 -3.731563 12.995798 0.000000 0.000000 0.000000 13.999993 18.608758 -17.704667 12.872678 -21.100306 2.407246 4.274316 3.742851 -3.058851 0.000000 0.000000 0.000000 -7.125000 0.000000 0.000000 -17.923385 32.650304 -5.663318 0.000000 0.000000 0.000000 3.212089 6.038182 6.908381 -19.658557 -30.228075 -5.358672 -17.637064 -3.932035 5.654308 0.000000 0.000000 0.000000 7.125000 0.000000 0.000000 7.585580 35.824406 1.722915
0.679222 17.391134 20.399090 5.120568 -177.954040 353.540654 0.000000 0.000000 0.000000 -14.857756 -0.247456 -23.805019 5.678404 14.109160 43.676759 0.306188 1.065398 -10.893326 0.157238 -2.555169 -7.042610 0.000000 0.000000 0.000000 23.788784 -10.545632 18.535537 -3.028422 -10.738924 31.406543 0.420986 -11.566129 -2.281477 -1.953216 8.768020 -25.072241 6.351372 5.004934 3.732442 -2.420816 6.833253 -6.030483 -6.725825 2.822274 -7.409195 12.254613 -3.070808 -21.454101 -4.540055 -9.022239 30.943104 -5.530630 -3.709996 13.274147 0.000000 0.000000 0.000000 13.841922 15.758166 -25.562312 12.128762 -19.997455 2.146153 9.516023 0.854254 -3.001481 0.000000 0.000000 0.000000 -7.125000 0.000000 0.000000 -13.790934 32.795985 -4.229055 0.000000 0.000000 0.000000 7.887168 16.247003 -7.562052 -13.174738 -21.542501 -2.517226 -16.809335 6.111887 6.019596 0.000000 0.000000 0.000000 7.125000 0.000000 0.000000 8.321099 36.158739 1.824269
0.334807 17.515116 19.184328 -2.629349 -176.971212 350.603992 0.000000 0.000000 0.000000 -25.373021 1.261022 -10.531407 3.705485 11.756774 34.878329 0.371538 3.868572 -13.596832 0.129881 -2.322827 -6.398679 0.000000 0.000000 0.000000 10.143963 -3.573306 -7.121473 -15.969724 -19.595114 78.135643 -1.116739 -9.244605 18.998495 -0.005024 0.451335 -1.240167 -1.180581 3.103161 7.203343 -3.646379 3.547834 -4.090556 -3.686293 1.596002 -8.204834 13.601839 -1.953013 -21.798285 -5.037548 -7.747379 30.452109 -5.742280 -3.078287 13.202430 0.000000 0.000000 0.000000 11.540957 6.247440 -36.439191 12.653087 -20.776270 2.329140 10.227683 -2.043223 -4.318231 0.000000 0.000000 0.000000 -7.125000 0.000000 0.000000 -13.442353 34.122681 -3.673033 0.000000 0.000000 0.000000 7.801283 20.020680 -28.399858 -8.958985 -15.094999 -1.189404 -17.142022 21.671214 10.833294 0.000000 0.000000 0.000000 7.125000 0.000000 0.000000 8.823510 41.143769 0.846581
0.191050 17.717111 18.349937 -7.497495 -176.069638 348.698327 0.000000 0.000000 0.000000 -31.066739 5.393556 -0.469214 1.892840 8.637713 24.669467 0.220046 4.215858 -11.434217 0.151355 -2.506742 -6.908368 0.000000 0.000000 0.000000 -3.259441 -2.163875 -43.051848 -28.133304 -18.330783 114.437652 -0.733438 -7.575406 15.378715 -0.050611 -1.448660 3.984290 -6.560987 1.288432 12.059031 -4.543699 -0.058485 -2.339349 -1.154023 0.038153 -9.357156 15.440030 -0.503625 -22.563643 -6.064689 -5.981236 29.633201 -6.158877 -2.226332 13.130088 0.000000 0.000000 0.000000 14.292838 -4.091536 -49.448253 17.772049 -27.863550 4.442663 11.091080 -8.010706 -0.540251 0.000000 0.000000 0.000000 -7.125000 0.000000 0.000000 -12.196696 30.402056 -4.437031 0.000000 0.000000 0.000000 8.330566 23.745377 -22.128389 -11.537040 -19.106015 -1.948611 -16.800682 9.579914 9.308510 0.000000 0.000000 0.000000 7.125000 0.000000 0.000000 8.839827 39.546446 1.199094
0.245391 17.884194 17.436495 -8.331491 -171.453746 346.662920 0.000000 0.000000 0.000000 -31.520522 7.437971 11.139766 0.633448 5.088430 14.161785 0.081953 3.641140 -7.961062 0.224590 -3.050604 -8.419697 0.000000 0.000000 0.000000 -8.404474 -4.871753 -71.942060 -30.776262 -16.949577 123.139298 -0.914634 -4.197825 17.150983 -0.103437 -2.070452 5.700430 -9.652046 -0.221187 15.807958 -4.682514 -3.078087 -1.208057 1.106347 -1.278406 -10.069639 16.963900 -0.636034 -21.804424 -6.925742 -6.274142 28.827986 -6.694932 -2.375559 12.513661 0.000000 0.000000 0.000000 16.087646 -14.391335 -55.109808 20.442940 -31.172311 5.758878 12.017306 -7.797185 0.625120 0.000000 0.000000 0.000000 -7.125000 0.000000 0.000000 -11.339940 29.251454 -4.431634 0.000000 0.000000 0.000000 11.877952 27.192986 -21.889019 -14.763208 -23.815199 -3.129691 -16.824100 1.441368 8.374774 0.000000 0.000000 0.000000 7.125000 0.000000 0.000000 8.661853 38.587429 1.380388
0.273155 18.045096 16.461484 -6.283379 -171.245524 344.433646 0.000000 0.000000 0.000000 -28.050831 10.179342 24.544803 0.000000 0.000000 0.000000 -0.082249 5.157494 -2.825456 0.257540 -3.264925 -9.017158 0.000000 0.000000 0.000000 -7.320347 2.060903 -84.201447 -28.715575 -18.071473 116.298204 -0.874625 -8.961764 16.896439 -0.039717 -1.286287 3.536792 -8.521469 -0.667374 17.448702 -3.928598 -3.439751 -0.533562 1.431947 -1.460615 -10.214608 16.991814 -0.963046 -21.291523 -6.595380 -6.857585 28.873817 -6.634403 -2.628256 12.367551 0.000000 0.000000 0.000000 14.147512 -21.898749 -55.193938 19.561679 -30.110695 5.309691 11.590206 -4.789730 1.358519 0.000000 0.000000 0.000000 -7.125000 0.000000 0.000000 -11.588027 28.513389 -4.739758 0.000000 0.000000 0.000000 13.195281 26.597231 -26.135458 -13.310254 -21.740118 -2.567021 -16.470233 3.954676 8.221321 0.000000 0.000000 0.000000 7.125000 0.000000 0.000000 8.937627 38.404379 1.465674
0.313935 18.030717 15.565046 -6.108108 -171.292316 345.222087 0.000000 0.000000 0.000000 -27.098968 10.319099 26.886509 0.000000 0.000000 0.000000 -0.067375 4.761225 -3.052308 0.433358 -4.223973 -11.707846 0.000000 0.000000 0.000000 -7.267129 6.157428 -85.187379 -25.732738 -19.192761 106.981102 -0.827895 -12.490313 17.259018 -0.066910 -1.668843 4.591457 -8.286713 -0.888390 17.414100 -3.813163 -3.661042 -0.855627 1.481204 -1.539543 -10.541243 16.755795 -1.043419 -21.932547 -6.392563 -7.197335 29.584538 -6.651844 -2.747887 12.763222 0.000000 0.000000 0.000000 12.513064 -23.518484 -55.240778 20.162542 -30.837651 5.614462 11.263883 -4.829389 1.428176 0.000000 0.000000 0.000000 -7.125000 0.000000 0.000000 -11.830085 28.441724 -4.863281 0.000000 0.000000 0.000000 13.207902 25.107631 -24.195546 -13.208268 -21.591548 -2.529472 -15.827792 5.750381 7.821804 0.000000 0.000000 0.000000 7.125000 0.000000 0.000000 9.415979 37.950550 1.651770
